# AST/ASF file generated using VICON BodyLanguage
# -----------------------------------------------
:version 1.10
:name VICON
:units
  mass 1.0
  length 0.45
  angle deg
:documentation
   .ast/.asf automatically generated from VICON data using
   VICON BodyBuilder and BodyLanguage model FoxedUp or BRILLIANT.MOD
:root
   order TX TY TZ RX RY RZ
   axis XYZ
   position 0 0 0  
   orientation 0 0 0 
:bonedata
  begin
     id 1 
     name lhipjoint
     direction 0.588788 -0.725889 0.355548 
     length 2.37778 
     axis 0 0 0  XYZ
  end
  begin
     id 2 
     name lfemur
     direction 0.34202 -0.939693 0  
     length 6.86393  
     axis 0 0 20  XYZ
    dof rx ry rz
    limits (-160.0 20.0)
           (-70.0 70.0)
           (-60.0 70.0)
  end
  begin
     id 3 
     name ltibia
     direction 0.34202 -0.939693 0   
     length 7.32851   
     axis 0 0 20   XYZ
    dof rx
    limits (-10.0 170.0)
  end
  begin
     id 4 
     name lfoot
     direction 0.0626533 -0.172138 0.983078   
     length 1.98929   
     axis -90 7.62852e-016 20   XYZ
    dof rx rz
    limits (-45.0 90.0)
           (-70.0 20.0)
  end
  begin
     id 5 
     name ltoes
     direction 1.53647e-011 -4.21734e-011 1   
     length 1.00479   
     axis -90 7.62852e-016 20   XYZ
    dof rx
    limits (-90.0 20.0)
  end
  begin
     id 6 
     name rhipjoint
     direction -0.59141 -0.724168 0.354705   
     length 2.38343  
     axis 0 0 0  XYZ 
  end
  begin
     id 7 
     name rfemur
     direction -0.34202 -0.939693 0   
     length 6.95589   
     axis 0 0 -20   XYZ
    dof rx ry rz
    limits (-160.0 20.0)
           (-70.0 70.0)
           (-70.0 60.0)
  end
  begin
     id 8 
     name rtibia
     direction -0.34202 -0.939693 0   
     length 7.32327   
     axis 0 0 -20   XYZ
    dof rx
    limits (-10.0 170.0)
 end
 begin
     id 9 
     name rfoot
     direction -0.0660461 -0.18146 0.981178   
     length 1.85272  
     axis -90 -7.62852e-016 -20   XYZ
    dof rx rz
    limits (-45.0 90.0)
           (-20.0 70.0)
  end
  begin
     id 10 
     name rtoes
     direction -1.53586e-011 -4.21988e-011 1   
     length 0.93746   
     axis -90 -7.62852e-016 -20   XYZ
    dof rx
    limits (-90.0 20.0)
  end
  begin
     id 11 
     name lowerback
     direction -0.0107982 0.991059 0.13299   
     length 1.98691   
     axis 0 0 0   XYZ
    dof rx ry rz
    limits (-20.0 45.0)
           (-30.0 30.0)
           (-30.0 30.0)
  end
  begin
     id 12 
     name upperback
     direction 0.0076296 0.999916 0.0104576   
     length 1.99501   
     axis 0 0 0   XYZ
    dof rx ry rz
    limits (-20.0 45.0)
           (-30.0 30.0)
           (-30.0 30.0)
  end
  begin
     id 13 
     name thorax
     direction 0.01176 0.998615 -0.0512909   
     length 2.03144   
     axis 0 0 0   XYZ
    dof rx ry rz
    limits (-20.0 45.0)
           (-30.0 30.0)
           (-30.0 30.0)
  end
  begin
     id 14 
     name lowerneck
     direction -0.0171909 0.999644 0.0204011   
     length 1.71818   
     axis 0 0 0   XYZ
    dof rx ry rz
    limits (-20.0 45.0)
           (-30.0 30.0)
           (-30.0 30.0)
  end
  begin
     id 15 
     name upperneck
     direction 0.0250902 0.997482 -0.0663316   
     length 1.66199   
     axis 0 0 0   XYZ
    dof rx ry rz
    limits (-20.0 45.0)
           (-30.0 30.0)
           (-30.0 30.0)
  end
  begin
     id 16
     name head
     direction 0.00881535 0.99956 -0.0283365  
     length 1.81545  
     axis 0 0 0   XYZ
    dof rx ry rz
    limits (-20.0 45.0)
           (-30.0 30.0)
           (-30.0 30.0)
  end
  begin
     id 17 
     name lclavicle
     direction 0.840411 0.486876 -0.238035  
     length 3.30409  
     axis 0 0 0   XYZ
    dof ry rz
    limits (-20.0 10.0)
           (0.0 20.0)
  end
  begin
     id 18 
     name lhumerus
     direction 1 -4.48977e-011 -5.16239e-027   
     length 4.62672   
     axis 180 -30 -90   XYZ
    dof rx ry rz
    limits (-60.0 90.0)
           (-90.0 90.0)
           (-90.0 90.0)
  end
  begin
     id 19
     name lradius
     direction 1 -4.48977e-011 -8.71171e-027   
     length 3.11018   
     axis 180 -30 -90   XYZ
    dof rx
    limits (-10.0 170.0)
  end
  begin
     id 20
     name lwrist
     direction 1 -4.48912e-011 -1.03764e-026   
     length 1.55509   
     axis 9.09556e-015 90 90   XYZ
    dof ry
    limits (-180.0 0.0)
 end
  begin
     id 21 
     name lhand
     direction 1 -4.49072e-011 -2.07528e-026   
     length 0.743834   
     axis 1.3242e-014 90 90   XYZ
    dof rx rz
    limits (-90.0 90.0)
           (-45.0 45.0)
  end
  begin
     id 22 
     name lfingers
     direction 1 -4.48909e-011 -4.15056e-026   
     length 0.599698   
     axis 2.64841e-014 90 90   XYZ
    dof rx
    limits (0.0 90.0)
  end
  begin
     id 23
     name lthumb
     direction 0.707107 -6.35013e-011 0.707107   
     length 0.86105   
     axis -90 45 2.85299e-015   XYZ
    dof rx rz
    limits (-45.0 45.0)
           (-45.0 45.0)
  end
  begin
     id 24 
     name rclavicle
     direction -0.835208 0.500237 -0.228452   
     length 3.2716  
     axis 0 0 0   XYZ 
    dof ry rz
    limits (-10.0 20.0)
           (-20.0 0.0)
  end
  begin
     id 25 
     name rhumerus
     direction -1 -4.48978e-011 -5.1953e-028  
     length 4.55919   
     axis 180 30 90   XYZ
    dof rx ry rz
    limits (-90.0 60.0)
           (-90.0 90.0)
           (-90.0 90.0)
  end
  begin
     id 26 
     name rradius
     direction -1 -4.48961e-011 -5.99546e-027   
     length 3.22748   
     axis 180 30 90   XYZ
    dof rx
    limits (-10.0 170.0)
  end
  begin
     id 27 
     name rwrist
     direction -1 -4.48986e-011 -1.03764e-026   
     length 1.61374   
     axis 9.09556e-015 -90 -90   XYZ
    dof ry
    limits (-180.0 0.0)
  end
  begin
     id 28
     name rhand
     direction -1 -4.4899e-011 -2.07528e-026   
     length 0.700882   
     axis 1.3242e-014 -90 -90   XYZ
    dof rx rz
    limits (-90.0 90.0)
           (-45.0 45.0)
  end
  begin
     id 29
     name rfingers
     direction -1 -4.48991e-011 -4.15056e-026   
     length 0.565069   
     axis 2.64841e-014 -90 -90   XYZ
    dof rx
    limits (0.0 90.0)
  end
  begin
     id 30
     name rthumb
     direction -0.707107 -6.34804e-011 0.707107   
     length 0.811329   
     axis -90 -45 -2.85299e-015   XYZ
    dof rx rz
    limits (-45.0 45.0)
           (-45.0 45.0)
  end
:hierarchy
  begin
    root lhipjoint rhipjoint lowerback
    lhipjoint lfemur
    lfemur ltibia
    ltibia lfoot
    lfoot ltoes
    rhipjoint rfemur
    rfemur rtibia
    rtibia rfoot
    rfoot rtoes
    lowerback upperback
    upperback thorax
    thorax lowerneck lclavicle rclavicle
    lowerneck upperneck
    upperneck head
    lclavicle lhumerus
    lhumerus lradius
    lradius lwrist
    lwrist lhand lthumb
    lhand lfingers
    rclavicle rhumerus
    rhumerus rradius
    rradius rwrist
    rwrist rhand rthumb
    rhand rfingers
  end

#!OML:ASF F:\VICON\USERDATA\INSTALL\SteveWalk\SteveWalk.ASF
:FULLY-SPECIFIED
:DEGREES
113
root -0.443431 16.0108 -17.2713 17.4159 5.28399 -0.0727494
lowerback -14.994 -2.45391 3.42574
upperback -5.32339 -3.81069 2.29179
thorax 2.68947 -1.89871 -0.173495
lowerneck -5.19267 -0.730621 0.233199
upperneck 8.26927 -0.796054 -2.34281
head 3.58456 -0.48625 -0.849316
rclavicle 2.29783e-014 2.3059e-014
rhumerus -89.997 -39.9568 -1.77718
rradius 10.952
rwrist 59.3611
rhand -13.3084 -35.0214
rfingers 7.12502
rthumb 12.7959 295.391
lclavicle 2.29783e-014 2.3059e-014
lhumerus -27.2635 -3.87703 84.6534
lradius 51.7512
lwrist 14.9325
lhand -23.3776 -18.3789
lfingers 7.12502
lthumb 3.07846 11.5786
rfemur -50.1224 -2.49291 23.495
rtibia 39.3164
rfoot -10.3974 6.30624
rtoes -18.6509
lfemur -9.85337 -0.963652 -18.3271
ltibia 52.1024
lfoot 19.0409 -13.0161
ltoes -14.2565
114
root -0.452912 16.0364 -17.0516 17.2769 5.15901 -0.229737
lowerback -14.783 -2.2857 3.43679
upperback -5.36468 -3.58046 2.35066
thorax 2.54196 -1.78684 -0.0694597
lowerneck -5.1042 -0.796756 0.26612
upperneck 8.44892 -0.887968 -2.30837
head 3.62869 -0.529832 -0.849098
rclavicle 9.39568e-015 1.59028e-015
rhumerus -87.3635 -40.4545 -5.90355
rradius 11.1671
rwrist 56.2987
rhand -12.9939 -35.1647
rfingers 7.12502
rthumb 13.0991 295.267
lclavicle 9.39568e-015 1.59028e-015
lhumerus -27.857 -3.82154 85.0808
lradius 50.7166
lwrist 14.775
lhand -23.2707 -18.4854
lfingers 7.12502
lthumb 3.18168 11.4706
rfemur -49.2674 -2.5296 23.8691
rtibia 39.6265
rfoot -11.1075 6.64048
rtoes -18.3667
lfemur -11.4923 -0.617563 -18.13
ltibia 55.0227
lfoot 22.4752 -12.3505
ltoes -16.9401
115
root -0.461241 16.0597 -16.8292 17.1983 5.06687 -0.473215
lowerback -14.7165 -2.14224 3.51255
upperback -5.42782 -3.40084 2.49647
thorax 2.44843 -1.69889 0.0740845
lowerneck -4.77702 -0.83551 0.220886
upperneck 8.41416 -0.936269 -2.33076
head 3.55202 -0.554209 -0.847187
rclavicle 2.14548e-014 -7.95139e-015
rhumerus -86.6721 -41.263 -6.56615
rradius 11.1651
rwrist 55.9469
rhand -12.5042 -35.191
rfingers 7.12502
rthumb 13.5711 295.271
lclavicle 2.14548e-014 -7.95139e-015
lhumerus -28.3737 -3.42378 85.5511
lradius 49.4023
lwrist 14.2354
lhand -22.9881 -18.5922
lfingers 7.12502
lthumb 3.45464 11.3595
rfemur -48.4061 -2.56574 24.2975
rtibia 39.8487
rfoot -11.9103 6.63703
rtoes -18.3928
lfemur -12.9408 -0.194323 -17.8279
ltibia 57.6412
lfoot 24.1586 -12.6657
ltoes -14.0212
116
root -0.469484 16.1094 -16.6038 17.1691 4.98356 -0.690751
lowerback -14.7914 -1.98968 3.59218
upperback -5.37347 -3.22043 2.59701
thorax 2.55077 -1.60667 0.159188
lowerneck -4.65502 -0.883986 0.157234
upperneck 8.3082 -1.00145 -2.29733
head 3.49063 -0.585807 -0.825526
rclavicle 4.31207e-014 -2.70347e-014
rhumerus -85.6676 -42.2952 -7.67188
rradius 11.0741
rwrist 55.5108
rhand -12.2888 -34.8966
rfingers 7.12502
rthumb 13.7787 295.58
lclavicle 4.31207e-014 -2.70347e-014
lhumerus -28.7295 -3.06139 85.9636
lradius 48.0612
lwrist 13.7248
lhand -22.7831 -18.5758
lfingers 7.12502
lthumb 3.65255 11.3726
rfemur -47.4082 -2.55529 24.6602
rtibia 39.848
rfoot -12.7275 6.5013
rtoes -18.5673
lfemur -14.8718 0.370767 -17.6046
ltibia 60.1781
lfoot 22.6598 -12.3602
ltoes -22.5039
117
root -0.477211 16.1366 -16.3887 17.1844 5.04968 -0.733066
lowerback -14.7494 -1.90116 3.47811
upperback -5.38991 -3.08685 2.66378
thorax 2.52391 -1.5393 0.316446
lowerneck -4.59502 -1.00501 0.0826418
upperneck 8.34657 -1.16067 -2.26133
head 3.49046 -0.665484 -0.807362
rclavicle 2.82336e-015 -2.14687e-014
rhumerus -81.8281 -42.6858 -13.0512
rradius 11.2431
rwrist 52.0919
rhand -12.5131 -34.6498
rfingers 7.12502
rthumb 13.5625 295.812
lclavicle 2.82336e-015 -2.14687e-014
lhumerus -29.1548 -2.92313 86.4413
lradius 46.8775
lwrist 13.3332
lhand -22.9772 -18.1766
lfingers 7.12502
lthumb 3.46512 11.775
rfemur -46.4842 -2.55101 24.7928
rtibia 39.7358
rfoot -13.3575 6.38304
rtoes -18.1539
lfemur -16.3235 0.463457 -17.466
ltibia 62.4387
lfoot 17.9966 -11.0937
ltoes -32.7583
118
root -0.48878 16.1725 -16.1728 17.0032 5.24166 -1.26733
lowerback -14.6848 -1.78985 3.82156
upperback -5.26163 -2.99798 2.88605
thorax 2.61922 -1.49298 0.370419
lowerneck -4.74955 -1.11146 -0.149709
upperneck 8.5623 -1.29116 -2.13263
head 3.59586 -0.734357 -0.733985
rclavicle -4.0403e-014 1.35174e-014
rhumerus -77.8507 -43.012 -18.4193
rradius 11.5433
rwrist 48.8763
rhand -12.9472 -34.4017
rfingers 7.12502
rthumb 13.1441 296.033
lclavicle -4.0403e-014 1.35174e-014
lhumerus -29.369 -2.61734 86.8518
lradius 45.6164
lwrist 12.6391
lhand -23.2921 -17.7841
lfingers 7.12502
lthumb 3.16105 12.1723
rfemur -45.264 -2.36434 25.4082
rtibia 39.5303
rfoot -14.0487 6.10771
rtoes -17.1361
lfemur -18.0236 0.74206 -16.7757
ltibia 64.5914
lfoot 13.9746 -10.3346
ltoes -34.0566
119
root -0.502212 16.2115 -15.9651 16.8306 5.44954 -1.90799
lowerback -14.6558 -1.65138 4.26016
upperback -5.14565 -2.88741 3.0855
thorax 2.71499 -1.43616 0.350278
lowerneck -4.79186 -1.21501 -0.214476
upperneck 8.73644 -1.42793 -2.06146
head 3.66435 -0.802441 -0.707764
rclavicle -2.23633e-016 2.38542e-015
rhumerus -74.8686 -43.5595 -22.218
rradius 11.6995
rwrist 47.0704
rhand -13.2581 -34.6103
rfingers 7.12502
rthumb 12.8444 295.805
lclavicle -2.23633e-016 2.38542e-015
lhumerus -29.5957 -2.12132 87.107
lradius 44.0782
lwrist 11.647
lhand -23.1621 -18.224
lfingers 7.12502
lthumb 3.2866 11.7304
rfemur -44.0874 -2.15826 26.145
rtibia 39.3408
rfoot -14.7854 5.71113
rtoes -16.6519
lfemur -20.2647 1.32769 -16.0507
ltibia 66.6231
lfoot 13.2533 -10.2648
ltoes -27.973
120
root -0.508648 16.2357 -15.7616 17.14 5.27115 -1.48238
lowerback -14.9263 -1.55967 3.64165
upperback -5.27389 -2.68384 2.95447
thorax 2.75356 -1.33269 0.586839
lowerneck -4.58525 -1.32082 -0.0644108
upperneck 8.87676 -1.57592 -2.12699
head 3.66998 -0.873315 -0.761735
rclavicle 3.13179e-014 -1.27222e-014
rhumerus -71.1601 -43.4015 -27.116
rradius 11.8886
rwrist 44.5465
rhand -13.458 -35.284
rfingers 7.12502
rthumb 12.6517 295.119
lclavicle 3.13179e-014 -1.27222e-014
lhumerus -30.0886 -1.6579 87.3112
lradius 42.4711
lwrist 10.7314
lhand -22.9702 -18.8182
lfingers 7.12502
lthumb 3.47184 11.1332
rfemur -43.4819 -2.11839 25.7268
rtibia 39.1391
rfoot -15.3377 5.60223
rtoes -16.3751
lfemur -22.3549 1.62197 -16.6273
ltibia 68.3548
lfoot 16.0867 -9.8988
ltoes -7.22365
121
root -0.508373 16.2649 -15.5547 17.5488 4.80047 -1.0928
lowerback -15.2614 -1.40504 3.11819
upperback -5.4039 -2.41205 2.83251
thorax 2.8171 -1.19539 0.791675
lowerneck -4.68161 -1.34384 -0.0149352
upperneck 9.23614 -1.6025 -2.14907
head 3.81467 -0.888147 -0.784545
rclavicle 2.95692e-015 -7.15625e-015
rhumerus -66.5398 -42.5017 -33.2626
rradius 12.3238
rwrist 41.0837
rhand -13.6277 -35.7325
rfingers 7.12502
rthumb 12.488 294.661
lclavicle 2.95692e-015 -7.15625e-015
lhumerus -30.6079 -1.10663 87.4477
lradius 40.9512
lwrist 9.91627
lhand -22.9306 -18.9573
lfingers 7.12502
lthumb 3.51015 10.9935
rfemur -42.9853 -2.01029 25.314
rtibia 38.9646
rfoot -15.9397 5.75697
rtoes -15.8778
lfemur -24.3136 2.04734 -17.3194
ltibia 69.7584
lfoot 11.448 -8.63115
ltoes -12.8198
122
root -0.509528 16.301 -15.3493 17.678 4.53429 -1.11807
lowerback -15.3324 -1.28553 3.08933
upperback -5.41882 -2.2527 2.81157
thorax 2.84063 -1.11611 0.811855
lowerneck -4.88741 -1.28568 0.0492155
upperneck 9.54079 -1.51885 -2.19781
head 3.96376 -0.849224 -0.814434
rclavicle 1.22998e-014 -1.35174e-014
rhumerus -61.8943 -41.3241 -39.3454
rradius 12.8653
rwrist 37.6317
rhand -13.9029 -35.8406
rfingers 7.12502
rthumb 12.2227 294.537
lclavicle 1.22998e-014 -1.35174e-014
lhumerus -31.1441 -0.423982 87.4302
lradius 39.5466
lwrist 9.11396
lhand -22.7025 -18.9286
lfingers 7.12502
lthumb 3.73042 11.0185
rfemur -42.1919 -1.92197 25.3607
rtibia 38.8511
rfoot -16.6535 5.80707
rtoes -15.2604
lfemur -26.2055 2.48993 -17.5315
ltibia 70.9206
lfoot 8.20836 -7.27417
ltoes -16.0234
123
root -0.518513 16.3306 -15.1464 17.6545 4.39887 -0.791995
lowerback -15.2502 -1.29029 2.63933
upperback -5.41774 -2.18597 2.70998
thorax 2.8123 -1.08145 0.971744
lowerneck -4.99375 -1.24293 0.0976804
upperneck 9.79157 -1.44949 -2.31129
head 4.07444 -0.820207 -0.861982
rclavicle -6.89379e-015 4.77083e-015
rhumerus -57.9472 -40.1099 -44.3797
rradius 13.3015
rwrist 34.9593
rhand -14.6504 -35.1347
rfingers 7.12502
rthumb 11.5019 295.201
lclavicle -6.89379e-015 4.77083e-015
lhumerus -31.781 0.303134 87.3404
lradius 38.0993
lwrist 8.34526
lhand -22.1803 -19.1465
lfingers 7.12502
lthumb 4.23463 10.7912
rfemur -41.2106 -1.89921 25.0412
rtibia 38.6786
rfoot -17.2584 5.60831
rtoes -15.3724
lfemur -27.9014 2.69559 -18.0292
ltibia 71.7877
lfoot 5.75073 -5.8995
ltoes -14.9597
